<svg width="16" height="16" viewBox="0 0 16 16" fill="none" xmlns="http://www.w3.org/2000/svg">
<path d="M9.47796 9.59742C9.12292 9.59742 8.8351 9.87381 8.8351 10.2148V11.861C8.8351 12.202 9.12292 12.4783 9.47796 12.4783C9.833 12.4783 10.1208 12.202 10.1208 11.861V10.2148C10.1208 9.87381 9.833 9.59742 9.47796 9.59742Z" fill="#E10000"/>
<path d="M5.40653 10.2148C5.40653 9.87381 5.69435 9.59742 6.04939 9.59742C6.40443 9.59742 6.69224 9.87381 6.69224 10.2148V11.861C6.69224 12.202 6.40443 12.4783 6.04939 12.4783C5.69435 12.4783 5.40653 12.202 5.40653 11.861V10.2148Z" fill="#E10000"/>
<path fill-rule="evenodd" clip-rule="evenodd" d="M9.77837 1.46908C9.60085 1.17381 9.7062 0.796254 10.0137 0.62578C10.3211 0.455306 10.7143 0.556473 10.8918 0.851743L12.6061 3.70312C12.6318 3.74584 12.6516 3.79028 12.6656 3.83556H12.9065C14.2083 3.83556 15.2637 4.84901 15.2637 6.09915C15.2637 6.80632 14.926 7.43775 14.397 7.85284L13.8254 11.6266L13.4424 13.3495C13.213 14.3818 12.3355 15.1659 11.2468 15.3114C8.93584 15.6202 6.5915 15.6202 4.28055 15.3114C3.19187 15.1659 2.31433 14.3818 2.08491 13.3495L1.70198 11.6266L1.13032 7.85284C0.601357 7.43775 0.263672 6.80632 0.263672 6.09915C0.263672 4.84901 1.319 3.83556 2.62081 3.83556H2.8617C2.87578 3.79028 2.89554 3.74584 2.92123 3.70312L4.63551 0.851743C4.81303 0.556473 5.2062 0.455306 5.51367 0.62578C5.82114 0.796254 5.92649 1.17381 5.74897 1.46908L4.32622 3.83556H11.2011L9.77837 1.46908ZM2.50641 8.36012C2.54432 8.36186 2.58246 8.36274 2.62081 8.36274H12.9065C12.9449 8.36274 12.983 8.36186 13.0209 8.36012L12.5591 11.4086L12.185 13.0918C12.0685 13.6162 11.6227 14.0146 11.0696 14.0885C8.87621 14.3816 6.65113 14.3816 4.45774 14.0885C3.90466 14.0146 3.45886 13.6162 3.3423 13.0918L2.96821 11.4086L2.50641 8.36012ZM13.978 6.09915C13.978 5.5309 13.4983 5.07025 12.9065 5.07025H2.62081C2.02908 5.07025 1.54939 5.5309 1.54939 6.09915C1.54939 6.6674 2.02908 7.12805 2.62081 7.12805H12.9065C13.4983 7.12805 13.978 6.6674 13.978 6.09915Z" fill="#E10000"/>
</svg>
