<svg width="24" height="25" viewBox="0 0 24 25" fill="none" xmlns="http://www.w3.org/2000/svg">
<path d="M14.7429 15.0908C14.1748 15.0908 13.7143 15.5514 13.7143 16.1197V18.8634C13.7143 19.4316 14.1748 19.8923 14.7429 19.8923C15.3109 19.8923 15.7714 19.4316 15.7714 18.8634V16.1197C15.7714 15.5514 15.3109 15.0908 14.7429 15.0908Z" fill="#68C114"/>
<path d="M8.22857 16.1197C8.22857 15.5514 8.68908 15.0908 9.25714 15.0908C9.82521 15.0908 10.2857 15.5514 10.2857 16.1197V18.8634C10.2857 19.4316 9.82521 19.8923 9.25714 19.8923C8.68908 19.8923 8.22857 19.4316 8.22857 18.8634V16.1197Z" fill="#68C114"/>
<path fill-rule="evenodd" clip-rule="evenodd" d="M15.2235 1.54353C14.9395 1.05141 15.108 0.422142 15.6 0.138019C16.092 -0.146105 16.721 0.0225066 17.0051 0.514623L19.7479 5.26692C19.789 5.33812 19.8206 5.41218 19.8432 5.48766H20.2286C22.3115 5.48766 24 7.17673 24 9.2603C24 10.4389 23.4597 11.4913 22.6134 12.1831L21.6987 18.4727L21.086 21.3443C20.7189 23.0647 19.3149 24.3716 17.573 24.614C13.8755 25.1287 10.1245 25.1287 6.42701 24.614C4.68512 24.3716 3.28106 23.0647 2.91397 21.3443L2.3013 18.4727L1.38664 12.1831C0.540297 11.4913 0 10.4389 0 9.2603C0 7.17673 1.68852 5.48766 3.77143 5.48766H4.15684C4.17938 5.41218 4.21099 5.33812 4.25208 5.26692L6.99494 0.514623C7.27897 0.0225066 7.90804 -0.146105 8.4 0.138019C8.89196 0.422142 9.06051 1.05141 8.77648 1.54353L6.50007 5.48766H17.4999L15.2235 1.54353ZM3.58839 13.0286C3.64904 13.0315 3.71006 13.0329 3.77143 13.0329H20.2286C20.2899 13.0329 20.351 13.0315 20.4116 13.0286L19.6727 18.1094L19.0742 20.9147C18.8877 21.7888 18.1744 22.4527 17.2895 22.5758C13.7801 23.0643 10.2199 23.0643 6.71051 22.5758C5.82559 22.4527 5.1123 21.7888 4.92581 20.9147L4.32727 18.1095L3.58839 13.0286ZM21.9429 9.2603C21.9429 8.31322 21.1753 7.54546 20.2286 7.54546H3.77143C2.82465 7.54546 2.05714 8.31322 2.05714 9.2603C2.05714 10.2074 2.82465 10.9751 3.77143 10.9751H20.2286C21.1753 10.9751 21.9429 10.2074 21.9429 9.2603Z" fill="#68C114"/>
</svg>
