<svg width="39" height="38" viewBox="0 0 39 38" fill="none" xmlns="http://www.w3.org/2000/svg">
<circle opacity="0.74" cx="18.5" cy="20" r="18" fill="#356C07"/>
<circle cx="31.5" cy="7" r="6.75" fill="#E10000" stroke="white" stroke-width="0.5"/>
<path d="M20.1 22.0545C19.7686 22.0545 19.5 22.3308 19.5 22.6718V24.318C19.5 24.659 19.7686 24.9354 20.1 24.9354C20.4314 24.9354 20.7 24.659 20.7 24.318V22.6718C20.7 22.3308 20.4314 22.0545 20.1 22.0545Z" fill="white"/>
<path d="M16.3 22.6718C16.3 22.3308 16.5686 22.0545 16.9 22.0545C17.2314 22.0545 17.5 22.3308 17.5 22.6718V24.318C17.5 24.659 17.2314 24.9354 16.9 24.9354C16.5686 24.9354 16.3 24.659 16.3 24.318V22.6718Z" fill="white"/>
<path fill-rule="evenodd" clip-rule="evenodd" d="M20.3804 13.9261C20.2147 13.6308 20.313 13.2533 20.6 13.0828C20.887 12.9123 21.2539 13.0135 21.4196 13.3088L23.0196 16.1602C23.0436 16.2029 23.062 16.2473 23.0752 16.2926H23.3C24.515 16.2926 25.5 17.306 25.5 18.5562C25.5 19.2633 25.1848 19.8948 24.6911 20.3099L24.1576 24.0836L23.8002 25.8066C23.586 26.8388 22.767 27.6229 21.7509 27.7684C19.594 28.0772 17.406 28.0772 15.2491 27.7684C14.233 27.6229 13.414 26.8388 13.1998 25.8066L12.8424 24.0836L12.3089 20.3099C11.8152 19.8948 11.5 19.2633 11.5 18.5562C11.5 17.306 12.485 16.2926 13.7 16.2926H13.9248C13.938 16.2473 13.9564 16.2029 13.9804 16.1602L15.5804 13.3088C15.7461 13.0135 16.113 12.9123 16.4 13.0828C16.687 13.2533 16.7853 13.6308 16.6196 13.9261L15.2917 16.2926H21.7083L20.3804 13.9261ZM13.5932 20.8171C13.6286 20.8189 13.6642 20.8198 13.7 20.8198H23.3C23.3358 20.8198 23.3714 20.8189 23.4068 20.8171L22.9758 23.8657L22.6266 25.5488C22.5178 26.0733 22.1017 26.4716 21.5855 26.5455C19.5384 26.8386 17.4616 26.8386 15.4145 26.5455C14.8983 26.4716 14.4822 26.0733 14.3734 25.5488L14.0242 23.8657L13.5932 20.8171ZM24.3 18.5562C24.3 17.9879 23.8523 17.5273 23.3 17.5273H13.7C13.1477 17.5273 12.7 17.9879 12.7 18.5562C12.7 19.1244 13.1477 19.5851 13.7 19.5851H23.3C23.8523 19.5851 24.3 19.1244 24.3 18.5562Z" fill="white"/>
<path d="M31.5018 10.081C30.7758 10.081 30.2238 9.802 29.8458 9.244C29.4678 8.686 29.2788 7.879 29.2788 6.823C29.2788 6.115 29.3628 5.521 29.5308 5.041C29.6988 4.555 29.9478 4.189 30.2778 3.943C30.6138 3.697 31.0218 3.574 31.5018 3.574C32.2338 3.574 32.7858 3.85 33.1578 4.402C33.5358 4.948 33.7248 5.752 33.7248 6.814C33.7248 7.522 33.6408 8.119 33.4728 8.605C33.3048 9.091 33.0558 9.46 32.7258 9.712C32.3958 9.958 31.9878 10.081 31.5018 10.081ZM31.5018 9.442C32.0058 9.442 32.3778 9.229 32.6178 8.803C32.8638 8.371 32.9868 7.708 32.9868 6.814C32.9868 5.914 32.8638 5.257 32.6178 4.843C32.3778 4.423 32.0058 4.213 31.5018 4.213C31.0038 4.213 30.6318 4.423 30.3858 4.843C30.1398 5.263 30.0168 5.92 30.0168 6.814C30.0168 7.708 30.1398 8.371 30.3858 8.803C30.6318 9.229 31.0038 9.442 31.5018 9.442Z" fill="white"/>
</svg>
