<svg width="20" height="20" viewBox="0 0 20 20" fill="none" xmlns="http://www.w3.org/2000/svg">
<path d="M9.99935 17.5C8.94679 16.6022 7.97117 15.6179 7.08268 14.5575C5.74935 12.965 4.16602 10.5933 4.16602 8.33334C4.16483 5.97297 5.58622 3.8445 7.76691 2.94118C9.94759 2.03785 12.4577 2.53771 14.126 4.20751C15.2231 5.29968 15.8376 6.78534 15.8327 8.33334C15.8327 10.5933 14.2494 12.965 12.916 14.5575C12.0275 15.6179 11.0519 16.6022 9.99935 17.5ZM9.99935 4.16668C7.69931 4.16943 5.83544 6.0333 5.83268 8.33334C5.83268 9.30501 6.27185 10.9875 8.36185 13.4883C8.87697 14.1034 9.42353 14.6914 9.99935 15.25C10.5752 14.6921 11.1221 14.1049 11.6377 13.4908C13.7268 10.9867 14.166 9.30418 14.166 8.33334C14.1633 6.0333 12.2994 4.16943 9.99935 4.16668ZM9.99935 10.8333C8.61864 10.8333 7.49935 9.71406 7.49935 8.33334C7.49935 6.95263 8.61864 5.83334 9.99935 5.83334C11.3801 5.83334 12.4994 6.95263 12.4994 8.33334C12.4994 8.99639 12.236 9.63227 11.7671 10.1011C11.2983 10.57 10.6624 10.8333 9.99935 10.8333Z" fill="white"/>
</svg>
