<svg width="17" height="17" viewBox="0 0 17 17" fill="none" xmlns="http://www.w3.org/2000/svg">
<path d="M11.4637 0.0429688C12.3473 0.0429688 13.0637 0.759313 13.0637 1.64297L1.86367 1.64297L1.86367 10.5841C0.980017 10.5841 0.263672 9.8678 0.263672 8.98415V1.64297C0.263672 0.759311 0.980016 0.0429688 1.86367 0.0429688H11.4637Z" fill="#356C07"/>
<path d="M9.86367 16.043L7.73034 13.7841H5.06367C4.18002 13.7841 3.46367 13.0678 3.46367 12.1841V4.84297C3.46367 3.95931 4.18002 3.24297 5.06367 3.24297H14.6637C15.5473 3.24297 16.2637 3.95931 16.2637 4.84297V12.1841C16.2637 13.0678 15.5473 13.7841 14.6637 13.7841H11.997L9.86367 16.043ZM11.3073 12.1841L14.6637 12.1841V4.84297L5.06367 4.84297V12.1841H8.42001L9.86367 13.7127L11.3073 12.1841Z" fill="#356C07"/>
</svg>
