<svg width="20" height="20" viewBox="0 0 20 20" fill="none" xmlns="http://www.w3.org/2000/svg">
<path d="M7.28512 7.23491C6.39084 7.99478 6.06313 9.38059 6.83531 10.4923C7.5579 11.5327 8.46813 12.4427 9.50825 13.165C10.62 13.937 12.0058 13.6092 12.7656 12.7149L12.774 12.7188C13.7445 13.1684 14.7753 13.4765 15.8333 13.6336V15.8333L15.8324 15.8333L15.8301 15.8333C9.18459 15.8427 4.15956 10.7593 4.16668 4.16966V4.16667H6.36614L6.36629 4.16764C6.52333 5.22554 6.83134 6.25545 7.28095 7.2259L7.28512 7.23491ZM15.8324 17.5H16.6667C17.1269 17.5 17.5 17.1269 17.5 16.6667V12.9148C17.5 12.5018 17.1975 12.1511 16.789 12.0905L16.0772 11.9848C15.1769 11.8512 14.3004 11.5891 13.4746 11.2065L12.8472 10.9159C12.4836 10.7475 12.0517 10.8617 11.8188 11.1877L11.5348 11.5854C11.2859 11.9339 10.8106 12.0403 10.4589 11.796C9.58196 11.1871 8.81339 10.4187 8.20419 9.54158C7.95984 9.18979 8.06629 8.71448 8.41486 8.46555L8.81231 8.18172C9.13841 7.94884 9.25259 7.51684 9.08414 7.15325L8.7932 6.52527C8.41062 5.6995 8.14852 4.82312 8.01488 3.92291L7.9092 3.21097C7.84856 2.80247 7.49787 2.5 7.0849 2.5H3.33334C2.8731 2.5 2.50001 2.8731 2.50001 3.33333V4.16786C2.49191 11.6732 8.25853 17.5107 15.8324 17.5Z" fill="white"/>
</svg>
