<svg width="37" height="36" viewBox="0 0 37 36" fill="none" xmlns="http://www.w3.org/2000/svg">
<circle opacity="0.1" cx="18.5" cy="18" r="18" fill="#356C07"/>
<path d="M14.4507 11.9915C13.292 13.1485 12.6181 14.7038 12.5663 16.3404C12.5145 17.9769 13.0887 19.5717 14.1719 20.7997C15.255 22.0276 16.7657 22.7963 18.3959 22.9492C19.9965 23.0992 21.5941 22.6446 22.8749 21.6767L26.2061 25.0087L26.2061 25.0087C26.289 25.0915 26.3873 25.1572 26.4955 25.2021C26.6038 25.2469 26.7198 25.27 26.8369 25.27C26.9541 25.27 27.0701 25.2469 27.1783 25.2021C27.2866 25.1572 27.3849 25.0915 27.4678 25.0087C27.5506 24.9258 27.6163 24.8275 27.6611 24.7192C27.706 24.611 27.729 24.495 27.729 24.3779C27.729 24.2607 27.706 24.1447 27.6611 24.0365C27.6163 23.9282 27.5506 23.8299 27.4678 23.747L27.4677 23.747L24.136 20.4161C25.1013 19.1351 25.5539 17.5386 25.403 15.9396C25.2493 14.3107 24.4808 12.8015 23.2539 11.7191C22.0269 10.6367 20.4337 10.0624 18.7984 10.113C17.163 10.1636 15.6084 10.8354 14.4507 11.9915ZM14.4507 11.9915L14.5214 12.0623L14.4507 11.9915ZM22.2887 13.2538C22.7263 13.6843 23.0743 14.1972 23.3127 14.7628C23.551 15.3285 23.675 15.9357 23.6775 16.5496C23.68 17.1634 23.561 17.7716 23.3272 18.3392C23.0935 18.9068 22.7497 19.4225 22.3156 19.8565C21.8816 20.2906 21.3659 20.6344 20.7983 20.8682C20.2307 21.1019 19.6225 21.221 19.0086 21.2185C18.3948 21.216 17.7876 21.092 17.2219 20.8536C16.6562 20.6152 16.1434 20.2672 15.7129 19.8297C14.8526 18.9552 14.3726 17.7762 14.3776 16.5496C14.3826 15.3229 14.8721 14.1479 15.7395 13.2805C16.6069 12.413 17.782 11.9235 19.0086 11.9185C20.2353 11.9135 21.4143 12.3935 22.2887 13.2538Z" fill="#356C07" stroke="#356C07" stroke-width="0.2"/>
</svg>
