<svg width="56" height="64" viewBox="0 0 56 64" fill="none" xmlns="http://www.w3.org/2000/svg">
<path d="M55.7568 61.8964L50.8926 15.5747C50.7905 14.605 49.9731 13.8686 48.998 13.8686H39.8555V11.7842C39.8555 5.28661 34.5689 0 28.0713 0C21.5733 0 16.2867 5.28661 16.2867 11.7842V13.8686H7.14412C6.16902 13.8686 5.35164 14.605 5.24959 15.5747L0.385342 61.8964C0.329189 62.433 0.503506 62.9686 0.864345 63.37C1.22567 63.7709 1.74032 63.9999 2.27987 63.9999H53.8618C54.4018 63.9999 54.9165 63.7709 55.2773 63.37C55.6391 62.9686 55.813 62.433 55.7568 61.8964ZM20.0962 11.7842C20.0962 7.38719 23.6739 3.80956 28.0713 3.80956C32.4683 3.80956 36.0459 7.38719 36.0459 11.7842V13.8686H20.0962V11.7842ZM4.3951 60.1903L8.85945 17.6782H16.2867V21.8759C16.2867 22.9277 17.1397 23.7807 18.1915 23.7807C19.2432 23.7807 20.0962 22.9277 20.0962 21.8759V17.6782H36.0459V21.8759C36.0459 22.9277 36.8989 23.7807 37.9507 23.7807C39.0024 23.7807 39.8555 22.9277 39.8555 21.8759V17.6782H47.2827L51.7471 60.1903H4.3951Z" fill="#E10000"/>
<path d="M37.1924 34.0482L37.5459 33.6947L37.1924 33.3411L35.7824 31.9311L35.429 31.5777L35.0754 31.9309L24.8177 42.179L20.9243 38.2947L20.5707 37.9419L20.2176 38.2951L18.8076 39.7051L18.454 40.0586L18.8076 40.4122L24.4644 46.069L24.818 46.4226L25.1715 46.069L37.1924 34.0482Z" fill="#E10000" stroke="#E10000"/>
</svg>
